<svg width="30" height="30" viewBox="0 0 46 36" fill="none" xmlns="http://www.w3.org/2000/svg">
<g id="Group 3154">
<path id="&#244;&#128;&#140;&#158;" d="M6.05261 35.1061H39.4923C43.2973 35.1061 45.2363 33.2141 45.2363 29.4664V10.4189C45.2363 6.67129 43.2973 4.79747 39.4923 4.79747H34.2605C32.8153 4.79747 32.3763 4.50639 31.5531 3.59677L30.0897 1.95945C29.175 0.95886 28.2421 0.413086 26.3579 0.413086H19.059C17.1748 0.413086 16.2418 0.95886 15.3272 1.95945L13.8637 3.59677C13.0406 4.4882 12.5832 4.79747 11.1564 4.79747H6.05261C2.22936 4.79747 0.308594 6.67129 0.308594 10.4189V29.4664C0.308594 33.2141 2.22936 35.1061 6.05261 35.1061ZM6.0892 32.1771C4.29648 32.1771 3.25377 31.2129 3.25377 29.3209V10.5827C3.25377 8.69066 4.29648 7.72646 6.0892 7.72646H11.8881C13.5345 7.72646 14.4308 7.41718 15.3455 6.39841L16.7723 4.79747C17.815 3.63315 18.3638 3.34207 19.9736 3.34207H25.4432C27.053 3.34207 27.6018 3.63315 28.6445 4.79747L30.0714 6.39841C30.986 7.41718 31.8824 7.72646 33.5288 7.72646H39.4374C41.2484 7.72646 42.2911 8.69066 42.2911 10.5827V29.3209C42.2911 31.2129 41.2484 32.1771 39.4374 32.1771H6.0892ZM22.7725 29.5574C28.297 29.5574 32.7422 25.1548 32.7422 19.6061C32.7422 14.0756 28.3153 9.67305 22.7725 9.67305C17.2297 9.67305 12.7845 14.0756 12.7845 19.6061C12.7845 25.1548 17.2297 29.5574 22.7725 29.5574ZM33.4922 12.9113C33.4922 14.1848 34.5532 15.1854 35.7971 15.1854C37.0227 15.1672 38.0655 14.1666 38.0655 12.9113C38.0655 11.7106 37.0227 10.6554 35.7971 10.6554C34.5532 10.6554 33.4922 11.7106 33.4922 12.9113ZM22.7725 26.7922C18.8029 26.7922 15.5467 23.6085 15.5467 19.6061C15.5467 15.622 18.7846 12.4201 22.7725 12.4201C26.7603 12.4201 29.9799 15.622 29.9799 19.6061C29.9799 23.6085 26.7603 26.7922 22.7725 26.7922Z" fill="#49352E"/>
</g>
</svg>
