<svg width="30" height="30" viewBox="0 0 41 39" fill="none" xmlns="http://www.w3.org/2000/svg">
<g id="Group 2980">
<path id="Rectangle 2265" d="M6.87521 9.16908C6.91327 8.92572 7.12289 8.74634 7.36921 8.74634H33.6483C33.8939 8.74634 34.1032 8.92482 34.142 9.16741L38.4627 36.1972C38.5113 36.501 38.2766 36.7761 37.969 36.7761H3.1418C2.83485 36.7761 2.60037 36.5021 2.6478 36.1989L6.87521 9.16908Z" stroke="#49352E" stroke-width="3"/>
<g id="Rectangle 2266">
<mask id="path-2-inside-1_681_2669" fill="white">
<path d="M13.2344 2.89697C13.2344 1.7924 14.1298 0.896973 15.2344 0.896973H26.7016C27.8062 0.896973 28.7016 1.7924 28.7016 2.89697V9.5584H13.2344V2.89697Z"/>
</mask>
<path d="M13.2344 2.89697C13.2344 1.7924 14.1298 0.896973 15.2344 0.896973H26.7016C27.8062 0.896973 28.7016 1.7924 28.7016 2.89697V9.5584H13.2344V2.89697Z" stroke="#49352E" stroke-width="6" mask="url(#path-2-inside-1_681_2669)"/>
</g>
</g>
</svg>
