<svg width="33" height="40" viewBox="0 0 33 40" fill="none" xmlns="http://www.w3.org/2000/svg">
<path id="&#244;&#128;&#137;&#169;" d="M16.8216 19.6078C21.1651 19.6078 24.7056 15.1344 24.7056 9.69029C24.7056 4.28843 21.1834 0.0471191 16.8216 0.0471191C12.4964 0.0471191 8.93761 4.37283 8.93761 9.73249C8.95586 15.1555 12.4781 19.6078 16.8216 19.6078ZM16.8216 16.4215C14.1571 16.4215 11.8759 13.4674 11.8759 9.73249C11.8759 6.06091 14.1206 3.23338 16.8216 3.23338C19.5409 3.23338 21.7674 6.01871 21.7674 9.69029C21.7674 13.4252 19.5044 16.4215 16.8216 16.4215ZM5.34235 39.1262H28.2826C31.3122 39.1262 32.7539 38.0712 32.7539 35.7501C32.7539 30.2216 26.7131 22.2243 16.8216 22.2243C6.91186 22.2243 0.871094 30.2216 0.871094 35.7501C0.871094 38.0712 2.31285 39.1262 5.34235 39.1262ZM4.4846 35.94C4.0101 35.94 3.80935 35.7923 3.80935 35.3492C3.80935 31.8886 8.44486 25.4106 16.8216 25.4106C25.1801 25.4106 29.8156 31.8886 29.8156 35.3492C29.8156 35.7923 29.6331 35.94 29.1586 35.94H4.4846Z" fill="#49352E"/>
</svg>
