<svg width="30" height="35" viewBox="0 0 41 35" fill="none" xmlns="http://www.w3.org/2000/svg">
<g id="Union">
<mask id="path-1-inside-1_681_2672" fill="white">
<path fill-rule="evenodd" clip-rule="evenodd" d="M3.57568 3.41284C-0.348144 7.33666 -0.348142 13.6984 3.57568 17.6222L6.38266 20.4292L6.31844 20.4934L20.5278 34.7029L37.6085 17.6222C41.5323 13.6984 41.5323 7.33666 37.6085 3.41284C33.6846 -0.510986 27.3229 -0.510983 23.399 3.41284L20.5921 6.21981L17.7851 3.41284C13.8613 -0.510984 7.4995 -0.510986 3.57568 3.41284Z"/>
</mask>
<path d="M3.57568 17.6222L1.45436 19.7436H1.45436L3.57568 17.6222ZM3.57568 3.41284L1.45436 1.29152L3.57568 3.41284ZM6.38266 20.4292L8.50399 22.5505L10.6253 20.4292L8.50398 18.3079L6.38266 20.4292ZM6.31844 20.4934L4.1971 18.3721L2.07581 20.4935L4.19712 22.6148L6.31844 20.4934ZM20.5278 34.7029L18.4065 36.8242L20.5278 38.9455L22.6492 36.8242L20.5278 34.7029ZM37.6085 17.6222L39.7298 19.7436L39.7298 19.7436L37.6085 17.6222ZM37.6085 3.41284L39.7298 1.29152V1.29152L37.6085 3.41284ZM23.399 3.41284L21.2777 1.29152V1.29152L23.399 3.41284ZM20.5921 6.21981L18.4707 8.34113L20.5921 10.4625L22.7134 8.34113L20.5921 6.21981ZM17.7851 3.41284L15.6638 5.53416L17.7851 3.41284ZM5.697 15.5009C2.94475 12.7487 2.94475 8.2864 5.697 5.53416L1.45436 1.29152C-3.64104 6.38691 -3.64103 14.6482 1.45436 19.7436L5.697 15.5009ZM8.50398 18.3079L5.697 15.5009L1.45436 19.7436L4.26134 22.5505L8.50398 18.3079ZM4.26132 18.3079L4.1971 18.3721L8.43977 22.6147L8.50399 22.5505L4.26132 18.3079ZM4.19712 22.6148L18.4065 36.8242L22.6492 32.5815L8.43976 18.3721L4.19712 22.6148ZM22.6492 36.8242L39.7298 19.7436L35.4871 15.5009L18.4065 32.5815L22.6492 36.8242ZM39.7298 19.7436C44.8252 14.6482 44.8252 6.38691 39.7298 1.29152L35.4871 5.53416C38.2394 8.28641 38.2394 12.7487 35.4871 15.5009L39.7298 19.7436ZM39.7298 1.29152C34.6344 -3.80388 26.3731 -3.80387 21.2777 1.29152L25.5204 5.53416C28.2726 2.78191 32.7349 2.78191 35.4871 5.53416L39.7298 1.29152ZM21.2777 1.29152L18.4707 4.09849L22.7134 8.34113L25.5204 5.53416L21.2777 1.29152ZM15.6638 5.53416L18.4707 8.34113L22.7134 4.09849L19.9064 1.29152L15.6638 5.53416ZM5.697 5.53416C8.44925 2.78191 12.9115 2.78191 15.6638 5.53416L19.9064 1.29152C14.811 -3.80388 6.54975 -3.80388 1.45436 1.29152L5.697 5.53416Z" fill="#49352E" mask="url(#path-1-inside-1_681_2672)"/>
</g>
</svg>
