<svg width="28" height="27" viewBox="0 0 28 27" fill="none" xmlns="http://www.w3.org/2000/svg">
<path id="&#244;&#128;&#159;&#178;" d="M13.5879 26.173C14.2508 26.173 14.7811 25.6427 14.7811 24.9798V12.1641C16.1363 11.678 17.1232 10.367 17.1232 8.83502C17.1232 7.30304 16.1363 5.99201 14.7811 5.5059V1.38133C14.7811 0.777373 14.2508 0.24707 13.5879 0.24707C12.925 0.24707 12.4094 0.777373 12.4094 1.38133V5.49117C11.0248 5.99201 10.0378 7.30304 10.0378 8.83502C10.0378 10.367 11.0248 11.678 12.4094 12.1641V24.9798C12.4094 25.6427 12.925 26.173 13.5879 26.173ZM19.9957 17.3493C19.9957 18.8813 20.9679 20.1923 22.3379 20.6784V25.0387C22.3379 25.6427 22.8682 26.173 23.5311 26.173C24.1939 26.173 24.7095 25.6427 24.7095 25.0387V20.6784C26.0795 20.1923 27.0664 18.8813 27.0664 17.3493C27.0664 15.8173 26.0795 14.4916 24.7095 14.0055V1.44025C24.7095 0.777373 24.1939 0.24707 23.5311 0.24707C22.8682 0.24707 22.3379 0.777373 22.3379 1.44025V14.0202C20.9679 14.5063 19.9957 15.8173 19.9957 17.3493ZM3.65945 26.173C4.32233 26.173 4.8379 25.6427 4.8379 25.0387V20.6784C6.20785 20.1923 7.1948 18.8813 7.1948 17.3493C7.1948 15.8173 6.20785 14.5063 4.8379 14.0202V1.44025C4.8379 0.777373 4.32233 0.24707 3.65945 0.24707C2.99658 0.24707 2.46627 0.777373 2.46627 1.44025V14.0055C1.09633 14.5063 0.109375 15.8173 0.109375 17.3493C0.109375 18.8813 1.09633 20.1923 2.46627 20.6784V25.0387C2.46627 25.6427 2.99658 26.173 3.65945 26.173ZM11.8644 8.83502C11.8644 7.87753 12.6304 7.11154 13.5879 7.11154C14.5601 7.11154 15.3114 7.87753 15.3114 8.83502C15.3114 9.80724 14.5601 10.5585 13.5879 10.5585C12.6304 10.5585 11.8644 9.80724 11.8644 8.83502ZM21.8076 17.3493C21.8076 16.3771 22.5736 15.6258 23.5311 15.6258C24.518 15.6258 25.2545 16.3771 25.2545 17.3493C25.2545 18.3215 24.518 19.0728 23.5311 19.0728C22.5736 19.0728 21.8076 18.3215 21.8076 17.3493ZM1.92124 17.3493C1.92124 16.3771 2.68723 15.6258 3.65945 15.6258C4.63167 15.6258 5.38294 16.3771 5.38294 17.3493C5.38294 18.3215 4.63167 19.0728 3.65945 19.0728C2.68723 19.0728 1.92124 18.3215 1.92124 17.3493Z" fill="#212121"/>
</svg>
