<svg width="30" height="30" viewBox="0 0 33 39" fill="none" xmlns="http://www.w3.org/2000/svg">
<g id="&#240;&#159;&#166;&#134; icon &#34;bell&#34;">
<path id="Vector" d="M28.8068 23.7785L28.8132 23.7849L28.8197 23.7911C29.8475 24.7792 30.5562 26.0844 30.8447 27.5511H2.25973C2.55658 26.0895 3.27817 24.7769 4.29198 23.7785C7.82423 20.3 10.0794 15.4747 10.0794 10.1217C10.0794 5.49259 13.2256 2.15698 16.5494 2.15698C19.9087 2.15698 23.0194 5.48738 23.0194 10.1217C23.0194 15.4747 25.2745 20.3 28.8068 23.7785ZM16.5494 37.0159C15.7341 37.0159 14.8043 36.3904 14.3477 35.2835H18.751C18.2944 36.3904 17.3646 37.0159 16.5494 37.0159Z" stroke="#49352E" stroke-width="3"/>
</g>
</svg>
